<?xml version="1.0" standalone="no"?>
<!DOCTYPE svg PUBLIC "-//W3C//DTD SVG 20010904//EN"
 "http://www.w3.org/TR/2001/REC-SVG-20010904/DTD/svg10.dtd">
<svg version="1.0" xmlns="http://www.w3.org/2000/svg"
 width="707.000000pt" height="200.000000pt" viewBox="0 0 707.000000 200.000000"
 preserveAspectRatio="xMidYMid meet">
<metadata>
Created by potrace 1.15, written by Peter Selinger 2001-2017
</metadata>
<g transform="translate(0.000000,200.000000) scale(0.100000,-0.100000)"
fill="#000000" stroke="none">
<path d="M433 1748 l-433 -250 0 -498 0 -498 432 -250 433 -250 30 18 c17 10
211 122 433 250 l402 232 -2 500 -3 500 -415 240 c-228 132 -422 243 -430 248
-11 5 -144 -67 -447 -242z m724 -248 c156 -89 281 -166 278 -170 -6 -9 -270
-160 -280 -160 -4 0 -71 37 -148 81 -106 62 -144 79 -156 72 -9 -5 -73 -42
-143 -82 l-128 -73 0 -168 0 -167 143 -82 144 -82 141 81 c77 45 147 80 154
78 19 -5 277 -152 278 -158 0 -5 -552 -328 -569 -333 -5 -1 -138 72 -295 163
l-286 165 0 336 0 335 287 166 c158 92 290 165 293 164 3 -2 132 -76 287 -166z"/>
<path d="M1960 1400 l0 -230 123 0 c138 0 183 9 228 47 46 39 69 96 69 173 0
88 -15 134 -57 181 -45 50 -80 59 -235 59 l-128 0 0 -230z m234 109 c35 -16
49 -58 44 -130 -6 -76 -28 -99 -94 -99 l-44 0 0 120 0 120 35 0 c19 0 45 -5
59 -11z"/>
<path d="M3353 1594 c-55 -31 -63 -39 -63 -65 0 -22 -5 -29 -20 -29 -17 0 -20
-7 -20 -45 0 -38 3 -45 20 -45 18 0 20 -7 21 -77 1 -136 26 -173 121 -173 69
0 78 6 78 54 0 40 -1 41 -32 41 l-33 0 -3 78 -3 77 36 0 c35 0 35 0 35 45 0
45 0 45 -35 45 l-34 0 -3 65 -3 64 -62 -35z"/>
<path d="M4483 1594 c-55 -31 -63 -39 -63 -65 0 -22 -5 -29 -20 -29 -17 0 -20
-7 -20 -45 0 -38 3 -45 20 -45 18 0 20 -7 21 -77 1 -136 26 -173 121 -173 69
0 78 6 78 54 0 40 -1 41 -32 41 l-33 0 -3 78 -3 77 36 0 c35 0 35 0 35 45 0
45 0 45 -35 45 l-34 0 -3 65 -3 64 -62 -35z"/>
<path d="M2530 1488 c-105 -54 -128 -182 -49 -273 73 -83 254 -70 310 21 l20
32 -61 7 c-49 6 -65 4 -79 -9 -10 -9 -30 -16 -44 -16 -27 0 -67 30 -67 50 0 6
50 10 131 10 l132 0 -7 47 c-13 98 -65 143 -174 150 -56 4 -74 1 -112 -19z"/>
<path d="M2955 1503 c-101 -26 -111 -148 -15 -187 22 -9 48 -16 58 -16 42 0
92 -21 92 -39 0 -36 -66 -43 -96 -10 -16 18 -26 20 -74 14 -30 -4 -56 -8 -58
-10 -1 -1 3 -15 10 -29 17 -38 61 -58 140 -64 86 -6 151 16 179 62 49 81 -5
143 -141 161 -61 8 -78 19 -61 39 17 20 50 20 79 0 27 -19 122 -11 122 10 0
17 -40 53 -73 65 -28 11 -125 13 -162 4z"/>
<path d="M3935 1495 c-16 -9 -36 -23 -42 -32 -11 -15 -13 -14 -13 10 0 26 -2
27 -60 27 l-60 0 0 -165 0 -165 65 0 65 0 0 104 c0 109 10 136 48 136 41 -1
47 -16 50 -130 l4 -110 60 0 60 0 -4 141 -3 141 -33 29 c-37 33 -88 38 -137
14z"/>
<path d="M3550 1335 l0 -165 65 0 65 0 0 165 0 165 -65 0 -65 0 0 -165z"/>
<path d="M4190 1335 l0 -165 65 0 65 0 0 165 0 165 -65 0 -65 0 0 -165z"/>
<path d="M4711 1338 c38 -90 69 -168 69 -174 0 -26 -39 -46 -80 -42 l-41 4 7
-41 c8 -49 16 -55 77 -55 65 0 112 22 132 60 14 28 155 397 155 407 0 2 -28 3
-62 1 l-61 -3 -28 -99 c-16 -54 -30 -101 -33 -103 -3 -3 -19 43 -37 101 l-32
106 -68 0 -67 0 69 -162z"/>
<path d="M3480 580 l0 -230 70 0 70 0 0 70 0 70 63 0 c117 0 177 55 177 164 0
44 -6 70 -20 94 -32 51 -70 62 -225 62 l-135 0 0 -230z"/>
<path d="M5460 580 l0 -230 65 0 65 0 0 230 0 230 -65 0 -65 0 0 -230z"/>
<path d="M5670 580 l0 -230 65 0 65 0 0 230 0 230 -65 0 -65 0 0 -230z"/>
<path d="M4013 679 c-35 -10 -83 -61 -83 -89 0 -14 11 -19 54 -24 47 -6 58 -4
75 13 25 25 73 27 92 5 17 -20 2 -30 -71 -45 -75 -15 -136 -37 -150 -54 -7 -8
-12 -30 -13 -50 -3 -91 140 -129 222 -59 l30 25 3 -23 c3 -20 9 -23 58 -26
l55 -3 -3 128 c-4 147 -16 180 -72 200 -41 14 -151 15 -197 2z"/>
<path d="M4895 665 c-23 -22 -25 -23 -25 -5 0 18 -7 20 -60 20 l-60 0 0 -165
0 -165 65 0 65 0 0 98 c0 115 13 145 62 140 26 -3 31 2 48 39 19 42 19 43 0
53 -32 17 -70 11 -95 -15z"/>
<path d="M5110 668 c-24 -13 -52 -35 -63 -49 -41 -56 -41 -152 0 -208 50 -68
170 -91 253 -49 130 66 128 249 -4 309 -57 26 -131 24 -186 -3z m140 -88 c14
-14 20 -33 20 -65 0 -86 -81 -119 -119 -48 -20 40 -9 104 23 125 20 14 56 8
76 -12z"/>
<path d="M4391 518 c38 -90 69 -168 69 -174 0 -26 -39 -46 -80 -42 l-41 4 7
-41 c8 -49 16 -55 77 -55 65 0 112 22 132 60 14 28 155 397 155 407 0 2 -28 3
-62 1 l-61 -3 -28 -99 c-16 -54 -30 -101 -33 -103 -3 -3 -19 43 -37 101 l-32
106 -68 0 -67 0 69 -162z"/>
</g>
</svg>
